
 
        <svg width="auto" height="32" viewBox="0 0 420 85" fill="none" xmlns="http://www.w3.org/2000/svg">
        <g clip-path="url(#clip0)">
        <path d="M10.0008 83.0996C9.01622 82.6144 8.19316 81.8547 7.63095 80.9122C7.06873 79.9697 6.79139 78.8847 6.83239 77.7881C6.77462 76.6714 7.08734 75.5668 7.72197 74.646C8.3566 73.7252 9.27763 73.0397 10.342 72.6959C9.27303 72.2116 8.37026 71.4236 7.74617 70.43C7.12209 69.4364 6.80429 68.2812 6.83239 67.1083C6.78366 66.3725 6.89233 65.6348 7.15115 64.9443C7.40998 64.2538 7.81303 63.6264 8.33344 63.1039C8.85385 62.5813 9.47967 62.1756 10.1692 61.9138C10.8588 61.652 11.5962 61.5402 12.3324 61.5856H23.8605V63.4455H12.7955C10.407 63.4455 8.44908 64.688 8.44908 67.5062C8.44908 70.3244 10.5614 72.3791 13.8516 72.3791H23.8605V74.2471H12.7955C10.407 74.2471 8.44908 75.4897 8.44908 78.3079C8.44908 81.126 10.5938 83.1808 13.8516 83.1808H23.8605V85.0487H7.1736V83.2458H10.0008V83.0996Z" fill="white"/>
        <path d="M21.5289 43.2309C22.4099 43.9803 23.1086 44.9205 23.5717 45.9802C24.0348 47.0398 24.2503 48.1911 24.2017 49.3464C24.2017 54.3737 20.5296 57.4192 15.379 57.4192C10.5614 57.4192 6.8324 54.593 6.8324 49.9068C6.8324 45.3669 10.3095 42.6705 14.9078 42.6705C15.3668 42.6728 15.8253 42.7026 16.2807 42.7599V55.5269C19.9122 55.2183 22.585 52.9443 22.585 49.2815C22.6163 48.3785 22.4296 47.4812 22.0407 46.6655C21.6518 45.8499 21.0722 45.1398 20.3509 44.5954L21.5289 43.2309ZM14.664 44.4979C11.1219 44.6278 8.44909 46.5526 8.44909 49.9068C8.44909 53.261 11.0244 55.3077 14.664 55.5269V44.4979Z" fill="white"/>
        <path d="M15.6552 39.6575C10.7807 39.6575 6.83237 36.8312 6.83237 32.2344C6.82178 31.0199 7.13921 29.8251 7.75119 28.7759C8.36316 27.7268 9.24699 26.8621 10.3095 26.2732V26.2082H0V24.3646H23.8605V26.192H20.5296V26.2569C21.6404 26.8373 22.5704 27.7115 23.2179 28.7843C23.8655 29.857 24.2058 31.087 24.2017 32.34C24.2017 36.953 20.3103 39.6575 15.6552 39.6575ZM15.5333 26.1513C11.4306 26.1513 8.48157 28.3198 8.48157 31.9582C8.48157 35.7754 11.7718 37.7895 15.5658 37.7895C19.3597 37.7895 22.5525 35.7754 22.5525 32.0151C22.5525 28.2548 19.5385 26.1513 15.5333 26.1513Z" fill="white"/>
        <path d="M0 19.2237V16.9253H2.26663V19.2237H0ZM23.8605 19.0044H7.17358V17.1446H23.8605V19.0044Z" fill="white"/>
        <path d="M23.8605 1.80298H20.879V1.85983C21.8978 2.3837 22.7493 3.18272 23.3367 4.16613C23.9241 5.14954 24.2237 6.27792 24.2017 7.42308C24.2017 10.7123 22.2113 12.6046 19.4491 12.6046C16.6869 12.6046 15.3871 10.7448 14.8834 8.32457C14.5314 6.17568 14.3333 4.00443 14.2903 1.82735H12.1131C10.3745 1.82735 8.44909 3.19176 8.44909 6.2617C8.44909 8.84435 9.75708 10.1763 11.3981 10.6717L10.7807 12.296C8.34348 11.4839 6.8324 9.34789 6.8324 6.18049C6.8324 2.26591 8.97716 0 12.2674 0H23.8605V1.80298ZM17.2394 1.80298H15.8095C15.8463 3.64775 16.0118 5.48769 16.3051 7.30938C16.7113 9.57529 17.4912 10.8179 19.3516 10.8179C21.2121 10.8179 22.6013 9.42098 22.6013 7.24441C22.5971 5.81956 22.0324 4.45355 21.0291 3.44148C20.0259 2.4294 18.6646 1.85253 17.2394 1.83547V1.80298Z" fill="white"/>
        <path d="M377.852 0H334.981V85H377.487L420 42.3457L377.852 0Z" fill="white"/>
        <path d="M321.048 0H278.543L236.03 42.3457V85H278.543L321.048 42.3457V0Z" fill="white"/>
        <path d="M178.543 0L137.078 41.2818V85H222.097V41.2818L178.543 0Z" fill="white"/>
        <path d="M81.0217 0H38.1264V85H123.153V42.3457L81.0217 0Z" fill="white"/>
        </g>
        <defs>
        <clipPath id="clip0">
        <rect width="420" height="85" fill="white"/>
        </clipPath>
        </defs>
        </svg>
      
 

