<svg width="132" height="56" viewBox="0 0 132 56" fill="none" xmlns="http://www.w3.org/2000/svg">
<path d="M0 0H13.0413L27.7895 13.75V27.5H0V0Z" fill="white"/>
<path d="M62.5263 13.75L48.6316 0L34.7368 13.75V27.5H62.5263L62.5263 13.75Z" fill="white"/>
<path d="M97.2632 0H83.3684L69.4737 13.75V27.5H83.3684L97.2632 13.75V0Z" fill="white"/>
<path d="M104.211 0H118.105L132 13.75L118.105 27.5H104.211L104.211 0Z" fill="white"/>
<path d="M1.64842 55.5906H0L0.0112328 41.652H1.65965V42.6838C3.07499 41.8118 4.583 41.3772 6.18368 41.3772C7.78436 41.38 8.91888 41.8735 9.58724 42.8577C10.2584 42.4511 11.0728 42.1006 12.0304 41.8146C12.988 41.5286 13.8501 41.3828 14.6139 41.3856C16.4758 41.3884 17.717 41.8763 18.3404 42.8521C18.9639 43.8279 19.2728 45.6364 19.27 48.275L19.2643 55.6074L17.6187 55.6046L17.6243 48.3563C17.6271 46.2197 17.4278 44.7728 17.0262 44.0213C16.6274 43.2671 15.7569 42.8913 14.4174 42.8913C13.7462 42.8913 13.0582 42.9867 12.3505 43.1829C11.6428 43.3764 11.1037 43.5783 10.7302 43.7802L10.1713 44.0578C10.4494 44.7644 10.587 46.1944 10.587 48.3507L10.5813 55.599L8.90765 55.5962L8.91327 48.404C8.91607 46.2309 8.71669 44.7672 8.31792 44.0129C7.91916 43.2587 7.05704 42.8829 5.73718 42.8829C5.08567 42.8829 4.42013 42.9783 3.74054 43.1745C3.06095 43.368 2.54424 43.5699 2.19041 43.7718L1.65965 44.0494L1.64842 55.5906Z" fill="white"/>
<path d="M33.3616 54.2251L34.1984 54.141L34.2546 55.5065C32.1512 55.7645 30.3736 55.8935 28.9218 55.8935C26.9111 55.8738 25.507 55.2766 24.7067 54.1045C23.9063 52.9324 23.5076 51.1295 23.5104 48.6956C23.516 43.8279 25.434 41.394 29.2672 41.3968C31.1094 41.3996 32.4854 41.924 33.3981 42.9754C34.3079 44.0269 34.7629 45.7037 34.7629 48.0086L34.7067 49.3461L25.215 49.3377C25.2122 51.0482 25.507 52.3156 26.0911 53.1427C26.678 53.9699 27.6806 54.3849 29.1043 54.3849C30.5281 54.3905 31.9462 54.3344 33.3616 54.2251ZM25.215 47.9469L33.0892 47.9525C33.092 46.1131 32.7887 44.8009 32.1849 44.0213C31.5812 43.239 30.6123 42.8493 29.2812 42.8493C27.9502 42.8493 26.9392 43.2502 26.2512 44.0606C25.5632 44.8653 25.2178 46.1608 25.215 47.9469Z" fill="white"/>
<path d="M49.4583 35.5056L49.4414 55.6327L47.7677 55.6299V54.598C46.2962 55.4701 44.8079 55.9047 43.2999 55.9047C42.6119 55.9047 42.0165 55.8234 41.5138 55.6663C41.0112 55.5093 40.5001 55.1953 39.9777 54.7298C38.9191 53.782 38.3883 51.9258 38.3911 49.1667C38.3939 46.4075 38.8404 44.4223 39.7362 43.2166C40.6293 42.0109 42.1373 41.408 44.2603 41.408C45.0775 41.408 46.2513 41.5314 47.7762 41.7725L47.7818 35.5L49.4583 35.5056ZM42.2552 54.2054C42.6006 54.3372 43.0471 54.4017 43.5947 54.4017C44.1423 54.4017 44.777 54.3008 45.4931 54.0961C46.2092 53.8914 46.7736 53.6979 47.1836 53.5129L47.7705 53.2072L47.779 43.2278C46.2906 43.0035 45.1364 42.8913 44.3164 42.8913C42.7354 42.8913 41.6402 43.3736 41.0336 44.3382C40.4271 45.3056 40.1238 46.8001 40.1238 48.8246C40.121 51.2024 40.4832 52.7558 41.2077 53.482C41.5616 53.8325 41.9098 54.0737 42.2552 54.2054Z" fill="white"/>
<path d="M54.4119 55.6355L54.4232 41.6968L56.0716 41.6996L56.0604 55.6383L54.4119 55.6355ZM54.426 38.2143L54.4288 36.1225L56.0772 36.1253L56.0744 38.2171L54.426 38.2143Z" fill="white"/>
<path d="M70.6687 45.8664L70.6631 53.3362C70.7361 54.0232 71.3399 54.4326 72.4772 54.5644L72.3929 55.9019C70.9607 55.9019 69.9077 55.5289 69.2393 54.7831C67.4898 55.543 65.7403 55.9243 63.9908 55.9215C62.7439 55.9215 61.7947 55.5626 61.1432 54.8448C60.4917 54.1297 60.1688 53.1063 60.1688 51.7772C60.1688 50.4481 60.5002 49.4639 61.1629 48.8246C61.8228 48.1853 62.8619 47.7899 64.2772 47.6413L69.0231 47.1702V45.8608C69.0231 44.8205 68.7956 44.0718 68.3407 43.6176C67.8857 43.1633 67.2764 42.9334 66.5125 42.9334C65.3219 42.9334 63.7773 43.0428 61.879 43.2643L61.0141 43.3484L60.9326 42.0109C62.9798 41.6211 64.7714 41.4277 66.3075 41.4305C67.8436 41.4305 68.9557 41.795 69.6437 42.5212C70.3261 43.2446 70.6687 44.3606 70.6687 45.8664ZM61.8958 51.6847C61.893 53.5605 62.6653 54.4999 64.2098 54.5027C64.881 54.5027 65.6139 54.4242 66.4142 54.2671C67.2146 54.1101 67.8464 53.9475 68.3126 53.7821L69.0118 53.5325L69.0175 48.4881L64.4653 48.9592C63.5527 49.0321 62.8984 49.2929 62.4968 49.7387C62.098 50.1789 61.8958 50.8294 61.8958 51.6847Z" fill="white"/>
<path d="M82.6204 41.4136C84.5385 41.4164 85.9201 41.952 86.7654 43.0203C87.6106 44.0886 88.0347 45.9813 88.0319 48.6956C88.0291 51.4099 87.5264 53.2998 86.5211 54.3681C85.5157 55.4364 83.7465 55.9692 81.2163 55.9664C80.3402 55.9664 78.9557 55.8794 77.0574 55.7112L76.1082 55.6271L76.125 35.9178L79.1411 35.9206L79.1355 42.2492C80.4132 41.6912 81.5786 41.4136 82.6204 41.4136ZM81.2135 53.2605C82.7019 53.2605 83.6932 52.9156 84.1874 52.2174C84.6817 51.522 84.9288 50.3359 84.9316 48.6648C84.9344 46.9936 84.7238 45.8159 84.3054 45.1373C83.8869 44.4588 83.2046 44.1195 82.2554 44.1195C81.3624 44.1195 80.4694 44.2569 79.5763 44.5345L79.1298 44.6747L79.1214 53.1483C80.1436 53.224 80.8429 53.2605 81.2135 53.2605Z" fill="white"/>
<path d="M102.213 46.0318L102.208 52.3885C102.227 52.7978 102.334 53.1007 102.528 53.2942C102.724 53.4904 103.025 53.6138 103.435 53.6699L103.348 55.9832C101.747 55.9804 100.509 55.6383 99.6354 54.9485C98.147 55.6355 96.6474 55.9776 95.1394 55.9748C92.3649 55.972 90.9804 54.4943 90.9833 51.5389C90.9833 50.1256 91.3624 49.105 92.1178 48.4741C92.8732 47.8432 94.0302 47.4618 95.5943 47.3329L99.1945 47.03V46.0262C99.1945 45.2831 99.0316 44.7616 98.7058 44.4644C98.3801 44.1672 97.8999 44.0185 97.268 44.0185C96.0774 44.0185 94.589 44.0914 92.8002 44.2372L91.9072 44.2933L91.7977 42.1455C93.8252 41.6632 95.6926 41.4248 97.3944 41.4248C99.0962 41.4276 100.326 41.795 101.079 42.5296C101.84 43.2671 102.216 44.4335 102.213 46.0318ZM95.9566 49.4807C94.6733 49.5901 94.0302 50.2883 94.0274 51.5697C94.0274 52.8511 94.5918 53.4932 95.7291 53.4932C96.6587 53.4932 97.6471 53.3474 98.689 53.0502L99.1917 52.882L99.1945 49.1751L95.9566 49.4807Z" fill="white"/>
<path d="M116.538 44.6214C114.342 44.3214 112.75 44.1728 111.764 44.17C110.778 44.17 110.093 44.2849 109.711 44.5176C109.329 44.7504 109.138 45.1177 109.138 45.6168C109.138 46.1187 109.346 46.472 109.765 46.6767C110.183 46.8814 111.169 47.1198 112.722 47.3889C114.275 47.6609 115.378 48.0843 116.03 48.6591C116.681 49.2368 117.004 50.2574 117.004 51.7267C117.004 53.196 116.532 54.2727 115.592 54.9597C114.651 55.6467 113.278 55.9888 111.472 55.9888C110.338 55.9888 108.903 55.829 107.173 55.5121L106.308 55.3719L106.42 52.8343C108.653 53.1343 110.262 53.2829 111.25 53.2857C112.236 53.2857 112.938 53.1652 113.359 52.924C113.778 52.6829 113.988 52.2847 113.988 51.7267C113.988 51.1687 113.789 50.7846 113.39 50.5687C112.991 50.3556 112.031 50.1228 110.514 49.8705C108.998 49.6181 107.886 49.2227 107.178 48.6816C106.471 48.1432 106.12 47.1562 106.12 45.7262C106.122 44.2961 106.611 43.2278 107.588 42.5212C108.566 41.8174 109.818 41.4641 111.343 41.4641C112.534 41.4641 113.994 41.6155 115.727 41.9127L116.591 42.081L116.538 44.6214Z" fill="white"/>
<path d="M130.683 53.1904L131.464 53.1063L131.517 55.3635C129.394 55.7897 127.515 56 125.878 56C123.811 55.9972 122.329 55.4308 121.427 54.2952C120.526 53.1624 120.076 51.3482 120.076 48.8582C120.082 43.9148 122.101 41.4445 126.142 41.4473C130.051 41.4501 132.003 43.5811 132 47.8348L131.803 50.0079L123.149 49.9994C123.165 51.1519 123.415 51.9987 123.901 52.5371C124.384 53.0754 125.286 53.3474 126.608 53.3474C127.928 53.3558 129.287 53.2998 130.683 53.1904ZM129.015 47.6693C129.015 46.2954 128.799 45.3336 128.361 44.784C127.922 44.2344 127.184 43.9596 126.142 43.9596C125.1 43.9596 124.342 44.2457 123.865 44.8205C123.39 45.3953 123.143 46.343 123.123 47.6637L129.015 47.6693Z" fill="white"/>
</svg>
