<svg width="24" height="24" viewBox="0 0 24 24" fill="none" xmlns="http://www.w3.org/2000/svg">
<path fill-rule="evenodd" clip-rule="evenodd" d="M5.25 6.25H18.2385V20.1325H8.73911L5.25 16.5925V6.25ZM6.75 7.75V15.9775L9.3668 18.6325H16.7385V7.75H6.75Z" fill="white"/>
<path fill-rule="evenodd" clip-rule="evenodd" d="M8.25 8.99374V5H9.75V8.99374H8.25Z" fill="white"/>
<path fill-rule="evenodd" clip-rule="evenodd" d="M13.3506 8.99374V5H14.8506V8.99374H13.3506Z" fill="white"/>
<path d="M10.1602 12.4131C10.2715 12.4131 10.3633 12.3945 10.4355 12.3574C10.5078 12.3184 10.5615 12.2627 10.5967 12.1904C10.6318 12.1162 10.6494 12.0273 10.6494 11.9238C10.6494 11.8574 10.6328 11.7939 10.5996 11.7334C10.5684 11.6709 10.5186 11.6201 10.4502 11.5811C10.3818 11.542 10.2949 11.5225 10.1895 11.5225C10.1211 11.5225 10.0527 11.5352 9.98438 11.5605C9.91797 11.584 9.8623 11.6191 9.81738 11.666C9.77441 11.7109 9.75293 11.7656 9.75293 11.8301H8.69824C8.69824 11.584 8.76562 11.375 8.90039 11.2031C9.03711 11.0312 9.21582 10.9004 9.43652 10.8105C9.65918 10.7188 9.89844 10.6729 10.1543 10.6729C10.4609 10.6729 10.7305 10.7197 10.9629 10.8135C11.1973 10.9053 11.3799 11.042 11.5107 11.2236C11.6416 11.4053 11.707 11.6299 11.707 11.8975C11.707 12.0498 11.6719 12.1914 11.6016 12.3223C11.5332 12.4512 11.4365 12.5645 11.3115 12.6621C11.1885 12.7578 11.0439 12.833 10.8779 12.8877C10.7119 12.9404 10.5322 12.9668 10.3389 12.9668H9.66797V12.4131H10.1602ZM9.66797 12.6885H10.3389C10.5498 12.6885 10.7422 12.7119 10.916 12.7588C11.0918 12.8037 11.2432 12.8721 11.3701 12.9639C11.499 13.0557 11.5977 13.1709 11.666 13.3096C11.7363 13.4482 11.7715 13.6104 11.7715 13.7959C11.7715 14.0635 11.7002 14.292 11.5576 14.4814C11.415 14.6689 11.2217 14.8125 10.9775 14.9121C10.7334 15.0098 10.458 15.0586 10.1514 15.0586C9.97363 15.0586 9.79492 15.0352 9.61523 14.9883C9.43555 14.9395 9.27148 14.8652 9.12305 14.7656C8.97656 14.666 8.8584 14.5371 8.76855 14.3789C8.67871 14.2188 8.63379 14.0273 8.63379 13.8047H9.69434C9.69434 13.877 9.7168 13.9443 9.76172 14.0068C9.80859 14.0674 9.86914 14.1162 9.94336 14.1533C10.0176 14.1904 10.0986 14.209 10.1865 14.209C10.3545 14.209 10.4844 14.1641 10.5762 14.0742C10.6699 13.9844 10.7168 13.8828 10.7168 13.7695C10.7168 13.6367 10.6943 13.5312 10.6494 13.4531C10.6064 13.373 10.543 13.3164 10.459 13.2832C10.377 13.248 10.2773 13.2305 10.1602 13.2305H9.66797V12.6885Z" fill="white"/>
<path d="M14.4932 15H13.4355V11.9795L12.4834 12.2344V11.4053L14.3965 10.7373H14.4932V15Z" fill="white"/>
</svg>
