<svg width="24" height="24" viewBox="0 0 24 24" fill="none" xmlns="http://www.w3.org/2000/svg">
<path fill-rule="evenodd" clip-rule="evenodd" d="M14.4416 6.51553C13.2598 5.98893 11.9393 5.85848 10.6773 6.14362C9.41527 6.42876 8.27921 7.11422 7.43856 8.09777C6.59792 9.08133 6.09773 10.3103 6.0126 11.6013C5.92747 12.8924 6.26195 14.1764 6.96617 15.2618C7.67039 16.3472 8.7066 17.1759 9.92028 17.6243C11.1339 18.0727 12.4601 18.1167 13.7008 17.7499C14.9416 17.383 16.0305 16.6249 16.8052 15.5886C17.5799 14.5523 17.9989 13.2934 17.9996 11.9995V10.7199H19.3329V11.9999C19.332 13.5813 18.82 15.1204 17.8731 16.387C16.9262 17.6535 15.5953 18.5801 14.0789 19.0285C12.5624 19.4769 10.9416 19.423 9.4582 18.875C7.97483 18.327 6.70834 17.3141 5.84763 15.9875C4.98692 14.6609 4.57811 13.0915 4.68216 11.5136C4.78621 9.93564 5.39754 8.4336 6.425 7.23148C7.45245 6.02936 8.84097 5.19157 10.3835 4.84307C11.926 4.49456 13.5398 4.65401 14.9843 5.29763L15.5932 5.56896L15.0505 6.78686L14.4416 6.51553Z" fill="white"/>
<path fill-rule="evenodd" clip-rule="evenodd" d="M19.6091 6.6662L11.9998 14.283L9.05678 11.34L9.99959 10.3972L11.9994 12.397L18.6658 5.72386L19.6091 6.6662Z" fill="white"/>
</svg>
