<svg width="24" height="24" viewBox="0 0 24 24" fill="none" xmlns="http://www.w3.org/2000/svg">
<path d="M11.4902 7.5332C11.3848 7.6543 11.332 7.80078 11.332 7.97266C11.332 8.14062 11.3848 8.28516 11.4902 8.40625C11.5996 8.52344 11.7598 8.58203 11.9707 8.58203C12.1816 8.58203 12.3418 8.52344 12.4512 8.40625C12.5645 8.28516 12.6211 8.14062 12.6211 7.97266C12.6211 7.80078 12.5645 7.6543 12.4512 7.5332C12.3418 7.41211 12.1816 7.35156 11.9707 7.35156C11.7598 7.35156 11.5996 7.41211 11.4902 7.5332Z" fill="white"/>
<path d="M11.4141 16H12.5098V9.66016H11.4141V16Z" fill="white"/>
<path fill-rule="evenodd" clip-rule="evenodd" d="M20 12C20 16.4183 16.4183 20 12 20C7.58172 20 4 16.4183 4 12C4 7.58172 7.58172 4 12 4C16.4183 4 20 7.58172 20 12ZM19 12C19 15.866 15.866 19 12 19C8.13401 19 5 15.866 5 12C5 8.13401 8.13401 5 12 5C15.866 5 19 8.13401 19 12Z" fill="white"/>
</svg>
