<svg width="16" height="16" viewBox="0 0 16 16" fill="none" xmlns="http://www.w3.org/2000/svg">
<circle cx="8" cy="8" r="7.5" stroke="white"/>
<path d="M7.33203 3.97266C7.33203 3.80078 7.38477 3.6543 7.49023 3.5332C7.59961 3.41211 7.75977 3.35156 7.9707 3.35156C8.18164 3.35156 8.3418 3.41211 8.45117 3.5332C8.56445 3.6543 8.62109 3.80078 8.62109 3.97266C8.62109 4.14062 8.56445 4.28516 8.45117 4.40625C8.3418 4.52344 8.18164 4.58203 7.9707 4.58203C7.75977 4.58203 7.59961 4.52344 7.49023 4.40625C7.38477 4.28516 7.33203 4.14062 7.33203 3.97266ZM8.50977 12H7.41406V5.66016H8.50977V12Z" fill="white"/>
</svg>
