<svg width="24" height="24" viewBox="0 0 24 24" fill="none" xmlns="http://www.w3.org/2000/svg">
<path fill-rule="evenodd" clip-rule="evenodd" d="M10.1944 6.75C8.29211 6.75 6.75 8.29211 6.75 10.1944C6.75 12.0967 8.29211 13.6388 10.1944 13.6388C12.0967 13.6388 13.6388 12.0967 13.6388 10.1944C13.6388 8.29211 12.0967 6.75 10.1944 6.75ZM5.25 10.1944C5.25 7.46368 7.46368 5.25 10.1944 5.25C12.9251 5.25 15.1388 7.46368 15.1388 10.1944C15.1388 12.9251 12.9251 15.1388 10.1944 15.1388C7.46368 15.1388 5.25 12.9251 5.25 10.1944Z" fill="white"/>
<path fill-rule="evenodd" clip-rule="evenodd" d="M17.4699 18.5315L12.6328 13.6944L13.6934 12.6337L18.5305 17.4708L17.4699 18.5315Z" fill="white"/>
</svg>
